<svg width="36" height="36" viewBox="0 0 36 36" fill="none" xmlns="http://www.w3.org/2000/svg">
<g clip-path="url(#clip0_2288_268581)">
<g clip-path="url(#clip1_2288_268581)">
<path d="M27 22.5537C27 22.9383 26.79 23.2722 26.47 23.4442L18.57 27.9373C18.41 28.0587 18.21 28.1194 18 28.1194C17.79 28.1194 17.59 28.0587 17.43 27.9373L9.53 23.4442C9.21 23.2722 9 22.9383 9 22.5537V13.4462C9 13.0617 9.21 12.7277 9.53 12.5557L17.43 8.06264C17.59 7.94121 17.79 7.88049 18 7.88049C18.21 7.88049 18.41 7.94121 18.57 8.06264L26.47 12.5557C26.79 12.7277 27 13.0617 27 13.4462V22.5537ZM18 10.0562L11 14.0432V21.9567L18 25.9437L25 21.9567V14.0432L18 10.0562Z" fill="#BFC9C3"/>
<path d="M17 23.0597H19V19.0119H23V16.988H19V12.9402H17V16.988H13V19.0119H17V23.0597Z" fill="#BFC9C3"/>
</g>
</g>
<defs>
<clipPath id="clip0_2288_268581">
<rect width="36" height="36" rx="18" fill="white"/>
</clipPath>
<clipPath id="clip1_2288_268581">
<rect x="-2" y="-2.14337" width="40" height="40.2867" rx="20" fill="white"/>
</clipPath>
</defs>
</svg>
