<svg width="208" height="28" viewBox="0 0 208 28" fill="none" xmlns="http://www.w3.org/2000/svg">
<path d="M197.697 5.15698H207.066V7.23999H199.78V10.3689H203.946V12.4519H199.78V15.572H207.066V17.655H197.697V5.15698Z" fill="#FBFCFF"/>
<path d="M180.77 5.15698H190.139V7.23999H182.853V10.3689H187.019V12.4519H182.853V15.572H190.139V17.655H180.77V5.15698Z" fill="#FBFCFF"/>
<path d="M165.416 7.23999V11.9246H168.536C169.187 11.9246 169.74 11.696 170.197 11.239C170.654 10.782 170.883 10.2312 170.883 9.58667C170.883 8.93628 170.654 8.38257 170.197 7.92554C169.74 7.46851 169.187 7.23999 168.536 7.23999H165.416ZM171.665 6.45776C172.532 7.31909 172.966 8.36206 172.966 9.58667C172.966 10.5125 172.699 11.3562 172.166 12.1179C171.645 12.8621 170.962 13.3953 170.118 13.7175L173.212 17.655H170.567L167.701 14.0076H165.416V17.655H163.333V5.15698H168.536C169.761 5.15698 170.804 5.59058 171.665 6.45776Z" fill="#FBFCFF"/>
<path d="M145.879 5.15698H155.775V7.23999H151.864V17.655H149.781V7.23999H145.879V5.15698Z" fill="#FBFCFF"/>
<path d="M123.746 15.572H125.829C126.977 15.572 127.959 15.1648 128.773 14.3503C129.588 13.5359 129.995 12.5544 129.995 11.406C129.995 10.2576 129.588 9.27612 128.773 8.46167C127.959 7.64722 126.977 7.23999 125.829 7.23999H123.746V15.572ZM121.663 5.15698H125.829C127.552 5.15698 129.022 5.76929 130.241 6.9939C131.466 8.21265 132.078 9.68335 132.078 11.406C132.078 13.1287 131.466 14.6023 130.241 15.8269C129.022 17.0457 127.552 17.655 125.829 17.655H121.663V5.15698Z" fill="#FBFCFF"/>
<path d="M104.209 5.15698H106.292V15.572H114.105V17.655H104.209V5.15698Z" fill="#FBFCFF"/>
<path d="M88.8549 7.23999V11.9246H91.975C92.6254 11.9246 93.1791 11.696 93.6361 11.239C94.0932 10.782 94.3217 10.2312 94.3217 9.58667C94.3217 8.93628 94.0932 8.38257 93.6361 7.92554C93.1791 7.46851 92.6254 7.23999 91.975 7.23999H88.8549ZM95.1039 6.45776C95.9711 7.31909 96.4047 8.36206 96.4047 9.58667C96.4047 10.5125 96.1381 11.3562 95.6049 12.1179C95.0834 12.8621 94.4008 13.3953 93.557 13.7175L96.6508 17.655H94.0053L91.14 14.0076H88.8549V17.655H86.7719V5.15698H91.975C93.1996 5.15698 94.2426 5.59058 95.1039 6.45776Z" fill="#FBFCFF"/>
<path d="M70.0207 14.3503C70.8352 15.1648 71.8166 15.572 72.965 15.572C74.1135 15.572 75.0949 15.1648 75.9094 14.3503C76.7238 13.5359 77.1311 12.5544 77.1311 11.406C77.1311 10.2576 76.7238 9.27612 75.9094 8.46167C75.0949 7.64722 74.1135 7.23999 72.965 7.23999C71.8166 7.23999 70.8352 7.64722 70.0207 8.46167C69.2063 9.27612 68.799 10.2576 68.799 11.406C68.799 12.5544 69.2063 13.5359 70.0207 14.3503ZM68.5441 6.9939C69.7688 5.76929 71.2424 5.15698 72.965 5.15698C74.6877 5.15698 76.1584 5.76929 77.3772 6.9939C78.6018 8.21265 79.2141 9.68335 79.2141 11.406C79.2141 13.1287 78.6018 14.6023 77.3772 15.8269C76.1584 17.0457 74.6877 17.655 72.965 17.655C71.2424 17.655 69.7688 17.0457 68.5441 15.8269C67.3254 14.6023 66.716 13.1287 66.716 11.406C66.716 9.68335 67.3254 8.21265 68.5441 6.9939Z" fill="#FBFCFF"/>
<path d="M58.543 5.15698H60.7314L55.5283 17.655H53.2607L51.3096 12.7771L49.3496 17.655H47.082L41.8789 5.15698H44.0674L48.1982 15.071L50.7559 8.55835H51.8545L53.8408 13.6472L53.9902 14.0251L54.4121 15.071L58.543 5.15698Z" fill="#FBFCFF"/>
<g clip-path="url(#clip0_5003_786)">
<path fill-rule="evenodd" clip-rule="evenodd" d="M3.64143 1.27835L4.36978 0.0168152H2.91309L3.64143 1.27835ZM4.36995 0.0168152L3.6416 1.27835H5.09829L4.36995 0.0168152ZM4.37012 0.0168152H5.82681L5.09846 1.27835L4.37012 0.0168152ZM5.82698 0.0168152L5.09863 1.27835H6.55469H6.55532H6.55549H8.01138L7.28344 0.0175139L7.28352 0.0173665L8.01155 1.27835L8.73989 0.0168152H7.28384H7.2832H7.28303H5.82715L6.55509 1.27765L6.55501 1.27779L5.82698 0.0168152ZM8.74006 0.0168152L8.01172 1.27835H9.46841L8.74006 0.0168152ZM10.1969 0.0168152L9.46858 1.27835L8.74023 0.0168152H10.1969ZM10.1971 0.0168152L9.46875 1.27835H10.9248H10.9254H10.9256H12.3815L11.6536 0.0175131L11.6536 0.0173657L12.3817 1.27835L13.11 0.0168152H11.654H11.6533H11.6532H10.1973L10.9252 1.27765L10.9251 1.2778L10.1971 0.0168152ZM13.1102 0.0168152L12.3818 1.27835H13.8385L13.1102 0.0168152ZM14.567 0.0168152L13.8387 1.27835L13.1104 0.0168152H14.567ZM14.5672 0.0168152L13.8389 1.27835H15.2949H15.2956H15.2957H16.7516L16.0237 0.0175139L16.0238 0.0173662L16.7518 1.27835L17.4801 0.0168152H16.0241H16.0234H16.0233H14.5674L15.2953 1.27765L15.2952 1.2778L14.5672 0.0168152ZM17.4803 0.0168152L16.752 1.27835H18.2086L17.4803 0.0168152ZM18.9368 0.0173669L18.2088 1.27835L17.4805 0.0168152H18.9365H18.9372H18.9373H20.3932L19.6653 1.27765L19.6654 1.2778L20.3934 0.0168152L21.1217 1.27835H19.6657H19.665H19.6649H18.209L18.9369 0.0175139L18.9368 0.0173669ZM21.8502 0.0168152L21.1219 1.27835L20.3936 0.0168152H21.8502ZM21.8504 0.0168152L21.1221 1.27835H22.5788L21.8504 0.0168152ZM23.307 0.0173669L22.5789 1.27835L21.8506 0.0168152H23.3066H23.3073H23.3074H24.7633L24.0354 1.27765L24.0355 1.27779L24.7635 0.0168152L25.4918 1.27835H24.0358H24.0352H24.035H22.5791L23.307 0.0175139L23.307 0.0173669ZM26.2204 0.0168152L25.492 1.27835L24.7637 0.0168152H26.2204ZM5.09829 1.27835H3.6416L4.36995 2.53988L5.09829 1.27835ZM4.37012 2.53988L5.09846 1.27835L5.82681 2.53988H4.37012ZM6.55469 1.27835H5.09863L5.82698 2.53988L6.55501 1.2789L6.55509 1.27905L5.82715 2.53988H7.28303H7.2832H7.28384H8.73989L8.01155 1.27835L7.28352 2.53933L7.28344 2.53918L8.01138 1.27835H6.55549H6.55532H6.55469ZM8.74006 2.53988L9.46841 1.27835H8.01172L8.74006 2.53988ZM8.74023 2.53988L9.46858 1.27835L10.1969 2.53988H8.74023ZM10.1971 2.53988L10.9251 1.2789L10.9252 1.27905L10.1973 2.53988H11.6532H11.6533H11.654H13.11L12.3817 1.27835L11.6536 2.53933L11.6536 2.53918L12.3815 1.27835H10.9256H10.9254H10.9248H9.46875L10.1971 2.53988ZM13.1102 2.53988L13.8385 1.27835H12.3818L13.1102 2.53988ZM13.1104 2.53988L13.8387 1.27835L14.567 2.53988H13.1104ZM14.5672 2.53988L15.2952 1.2789L15.2953 1.27905L14.5674 2.53988H16.0233H16.0234H16.0241H17.4801L16.7518 1.27835L16.0238 2.53933L16.0237 2.53918L16.7516 1.27835H15.2957H15.2956H15.2949H13.8389L14.5672 2.53988ZM17.4803 2.53988L18.2086 1.27835H16.752L17.4803 2.53988ZM17.4805 2.53988L18.2088 1.27835L18.9368 2.53933L18.9369 2.53918L18.209 1.27835H19.6649H19.665H19.6657H21.1217L20.3934 2.53988L19.6654 1.2789L19.6653 1.27905L20.3932 2.53988H18.9373H18.9372H18.9365H17.4805ZM20.3936 2.53988L21.1219 1.27835L21.8502 2.53988H20.3936ZM21.8504 2.53988L22.5788 1.27835H21.1221L21.8504 2.53988ZM21.8506 2.53988L22.5789 1.27835L23.307 2.53933L23.307 2.53918L22.5791 1.27835H24.035H24.0352H24.0358H25.4918L24.7635 2.53988L24.0355 1.2789L24.0354 1.27905L24.7633 2.53988H23.3074H23.3073H23.3066H21.8506ZM4.37012 2.53989H5.82681L5.09846 3.80142L4.37012 2.53989ZM5.82698 2.53989L5.09863 3.80142H6.55469H6.55532H6.55549H8.01138L7.28344 2.54059L7.28384 2.53989H7.28303H5.82715L6.55509 3.80072L6.55501 3.80087L5.82698 2.53989ZM5.09863 3.80142H6.55469H6.55532H6.55549H8.01138L7.28344 5.06225L7.28352 5.0624L8.01155 3.80142L8.73989 5.06293V5.06295L8.01155 6.32446L7.28352 5.06348L7.28344 5.06363L8.01138 6.32446H6.55549H6.55469L6.55509 6.32376L5.82716 5.06295H5.82715L5.82716 5.06294L5.82715 5.06293H5.82716L6.55509 3.80212L6.55501 3.80197L5.82698 5.06295L5.09863 3.80142ZM1.45669 5.06293L0.728346 6.32446L0 5.06293H1.45669ZM1.45686 5.06293L0.728516 6.32446H2.18457H2.18521H2.18538H3.64126L2.91332 5.06363L2.91372 5.06293H2.91292H1.45703L2.18497 6.32376L2.18489 6.32391L1.45686 5.06293ZM8.74006 5.06293L8.01172 6.32446H9.46841L8.74006 5.06293ZM13.11 5.06293L12.3817 6.32446L11.6533 5.06293H13.11ZM13.1102 5.06293L12.3818 6.32446H13.8385L13.1102 5.06293ZM14.567 5.06293L13.8387 6.32446L13.1104 5.06293H14.567ZM14.5672 5.06293L13.8389 6.32446H15.2949H15.2956H15.2957H16.7516L16.0237 5.06363L16.0238 5.06348L16.7518 6.32446L17.4801 5.06293H16.0241H16.0234H16.0233H14.5674L15.2953 6.32376L15.2952 6.32391L14.5672 5.06293ZM17.4803 5.06293L16.752 6.32446H18.2086L17.4803 5.06293ZM18.9368 5.06348L18.2088 6.32446L17.4805 5.06293H18.9365H18.9372H18.9373H20.3932L19.6653 6.32376L19.6654 6.32391L20.3934 5.06293L21.1217 6.32446H19.6657H19.665H19.6649H18.209L18.9369 5.06363L18.9368 5.06348ZM21.8502 5.06293L21.1219 6.32446L20.3936 5.06293H21.8502ZM21.8504 5.06293L21.1221 6.32446H22.5788L21.8504 5.06293ZM23.307 5.06348L22.5789 6.32446L21.8506 5.06293H23.3066H23.3073H23.3074H24.7633L24.0354 6.32376L24.0355 6.32391L24.7635 5.06293L25.4918 6.32446H24.0358H24.0352H24.035H22.5791L23.307 5.06363L23.307 5.06348ZM26.2204 5.06293L25.492 6.32446L24.7637 5.06293H26.2204ZM26.2205 5.06293L25.4922 6.32446H26.9489L26.2205 5.06293ZM27.6771 5.06348L26.949 6.32446L26.2207 5.06293H27.6768H27.6774H27.6776H29.1334L28.4055 6.32376L28.4059 6.32446H28.4051H26.9492L27.6772 5.06363L27.6771 5.06348ZM1.45686 7.58599L2.18489 6.32501L2.18497 6.32516L1.45703 7.58599H2.91292H2.91309H2.91372H4.36978L3.64143 6.32446L2.9134 7.58544L2.91332 7.5853L3.64126 6.32446H2.18538H2.18521H2.18457H0.728516L1.45686 7.58599ZM7.28303 7.58599L8.01138 6.32446H6.55469L7.28303 7.58599ZM7.2832 7.58599L8.01155 6.32446L8.73989 7.58599H7.2832ZM8.74006 7.58599L9.46841 6.32446H8.01172L8.74006 7.58599ZM8.74023 7.58599L9.46858 6.32446L10.1969 7.58599H8.74023ZM13.1102 7.58599L13.8385 6.32446H12.3818L13.1102 7.58599ZM13.1104 7.58599L13.8387 6.32446L14.567 7.58599H13.1104ZM14.5672 7.58599L15.2952 6.32501L15.2953 6.32516L14.5674 7.58599H16.0233H16.0234H16.0241H17.4801L16.7518 6.32446L16.0238 7.58544L16.0237 7.5853L16.7516 6.32446H15.2957H15.2956H15.2949H13.8389L14.5672 7.58599ZM17.4803 7.58599L18.2086 6.32446H16.752L17.4803 7.58599ZM17.4805 7.58599L18.2088 6.32446L18.9368 7.58544L18.9369 7.5853L18.209 6.32446H19.6649H19.665H19.6657H21.1217L20.3934 7.58599L19.6654 6.32501L19.6653 6.32516L20.3932 7.58599H18.9373H18.9372H18.9365H17.4805ZM20.3936 7.58599L21.1219 6.32446L21.8502 7.58599H20.3936ZM21.8504 7.58599L22.5788 6.32446H21.1221L21.8504 7.58599ZM21.8506 7.58599L22.5789 6.32446L23.307 7.58544L23.307 7.5853L22.5791 6.32446H24.035H24.0352H24.0358H25.4918L24.7635 7.58599L24.0355 6.32501L24.0354 6.32516L24.7633 7.58599H23.3074H23.3073H23.3066H21.8506ZM24.7637 7.58599L25.492 6.32446L26.2204 7.58599H24.7637ZM26.2205 7.58599L26.9489 6.32446H25.4922L26.2205 7.58599ZM26.2207 7.58599L26.949 6.32446L27.6774 7.58599H26.2207ZM27.6776 7.58599L28.4059 6.32446H26.9492L27.6776 7.58599ZM2.91332 7.5867L2.9134 7.58655L3.64143 8.84753L4.36978 7.586H2.91372H2.91309H2.91292H1.45703L2.18497 8.84683L2.18457 8.84753H2.18538H3.64126L2.91332 7.5867ZM4.36995 7.586L3.6416 8.84753H5.09829L4.36995 7.586ZM8.73989 7.586L8.01155 8.84753L7.2832 7.586H8.73989ZM8.74006 7.586L8.01172 8.84753H9.46841L8.74006 7.586ZM10.1969 7.586L9.46858 8.84753L8.74023 7.586H10.1969ZM10.1971 7.586L9.46875 8.84753H10.9254L10.1971 7.586ZM24.0352 8.84753L24.7635 7.586L25.4918 8.84753H24.0352ZM25.492 8.84753L26.2204 7.586H24.7637L25.492 8.84753ZM25.4922 8.84753L26.2205 7.586L26.9489 8.84753H25.4922ZM26.949 8.84753L27.6774 7.586H26.2207L26.949 8.84753ZM3.64126 8.84753L2.91292 10.1091L2.18457 8.84753H3.64126ZM3.64143 8.84753L2.91309 10.1091H4.36978L3.64143 8.84753ZM5.09829 8.84753L4.36995 10.1091L3.6416 8.84753H5.09829ZM5.09846 8.84753L4.37012 10.1091H5.82681L5.09846 8.84753ZM9.46841 8.84753L8.74006 10.1091L8.01172 8.84753H9.46841ZM9.46858 8.84753L8.74023 10.1091H10.1969L9.46858 8.84753ZM10.9254 8.84753L10.1971 10.1091L9.46875 8.84753H10.9254ZM10.9256 8.84753L10.1973 10.1091H11.654L10.9256 8.84753ZM23.3066 10.1091L24.035 8.84753L24.7633 10.1091H23.3066ZM24.7635 10.1091L25.4918 8.84753H24.0352L24.7635 10.1091ZM24.7637 10.1091L25.492 8.84753L26.2204 10.1091H24.7637ZM26.2205 10.1091L26.9489 8.84753H25.4922L26.2205 10.1091ZM4.36978 10.1091L3.64143 11.3706L2.91309 10.1091H4.36978ZM4.36995 10.1091L3.6416 11.3706H5.09829L4.36995 10.1091ZM5.82681 10.1091L5.09846 11.3706L4.37012 10.1091H5.82681ZM5.82698 10.1091L5.09863 11.3706H6.55532L5.82698 10.1091ZM10.1969 10.1091L9.46858 11.3706L8.74023 10.1091H10.1969ZM10.1971 10.1091L9.46875 11.3706H10.9248H10.9254H10.9256H12.3815L11.6536 10.1098L11.654 10.1091H11.6532H10.1973L10.9252 11.3699L10.9251 11.37L10.1971 10.1091ZM16.752 11.3706L17.4803 10.1091L18.2086 11.3706H16.752ZM18.2088 11.3706L18.9368 10.1096L18.9369 10.1098L18.209 11.3706H19.6649H19.6657L19.6653 11.3699L20.3932 10.1091H18.9373H18.9372H18.9365H17.4805L18.2088 11.3706ZM24.0354 11.3699L24.7633 10.1091H23.3074H23.3066L23.307 10.1098L22.5791 11.3706H24.035H24.0352H24.0358H25.4918L24.7635 10.1091L24.0355 11.37L24.0354 11.3699ZM25.492 11.3706L26.2204 10.1091H24.7637L25.492 11.3706ZM5.09829 11.3706L4.36995 12.6321L3.6416 11.3706H5.09829ZM5.09846 11.3706L4.37012 12.6321V12.6321L5.09846 13.8936L5.82681 12.6321V12.6321L5.09846 11.3706ZM6.55532 11.3706L5.82698 12.6321L5.09863 11.3706H6.55532ZM5.82698 12.6321L6.55501 13.8931L6.55509 13.8929L5.82715 12.6321V12.6321L6.55549 11.3706L7.28384 12.6321V12.6321L7.28344 12.6328L8.01138 13.8936H6.55549H6.55532H6.55469H5.09863L5.82698 12.6321ZM10.9251 11.3712L10.1971 12.6321L9.46875 11.3706H10.9248H10.9254H10.9256H12.3815L11.6536 12.6314L11.6536 12.6316L12.3817 11.3706L13.11 12.6321V12.6321L12.3817 13.8936L11.6536 12.6327L11.6536 12.6328L12.3815 13.8936H10.9256H10.9248L10.9252 13.8929L10.1973 12.6321V12.6321L10.9252 11.3713L10.9251 11.3712ZM16.0234 12.6321L16.7518 11.3706L17.4801 12.6321L16.7518 13.8936L16.0234 12.6321ZM17.4803 12.6321L18.2086 11.3706H16.752L17.4803 12.6321ZM17.4803 12.6321L18.2086 13.8936H16.752L17.4803 12.6321ZM17.4805 12.6321L18.2088 11.3706L18.9372 12.6321L18.2088 13.8936L17.4805 12.6321ZM18.9373 12.6321L19.6657 11.3706H18.209L18.9373 12.6321ZM21.8506 12.6321L22.5789 11.3706L23.307 12.6316L23.307 12.6314L22.5791 11.3706H24.035H24.0352H24.0358H25.4918L24.7635 12.6321L24.0355 11.3712L24.0354 11.3713L24.7633 12.6321L24.0354 13.8929L24.0358 13.8936H24.035H22.5791L23.3071 12.6328L23.307 12.6327L22.5789 13.8936L21.8506 12.6321ZM16.0233 12.6321L15.2949 13.8936H16.7516L16.0233 12.6321ZM21.8504 12.6321L21.1221 13.8936H22.5788L21.8504 12.6321ZM5.82698 15.1552L6.55501 13.8942L6.55509 13.8943L5.82715 15.1552H7.28303H7.2832H7.28384H8.73989L8.01155 13.8936L7.28352 15.1546L7.28344 15.1545L8.01138 13.8936H6.55549H6.55532H6.55469H5.09863L5.82698 15.1552ZM11.6532 15.1552L12.3815 13.8936H10.9248L11.6532 15.1552ZM16.0237 15.1545L16.7516 13.8936H15.2957H15.2949L15.2953 13.8943L14.5674 15.1552H16.0233H16.0234H16.0241H17.4801L16.7518 13.8936L16.0238 15.1546L16.0237 15.1545ZM17.4803 15.1552L18.2086 13.8936H16.752L17.4803 15.1552ZM20.3936 15.1552L21.1219 13.8936L21.8502 15.1552H20.3936ZM21.8504 15.1552L22.5788 13.8936H21.1221L21.8504 15.1552ZM21.8506 15.1552L22.5789 13.8936L23.3073 15.1552H21.8506ZM23.3074 15.1552L24.0358 13.8936H22.5791L23.3074 15.1552ZM7.28344 15.1559L7.28352 15.1557L8.01155 16.4167L8.73989 15.1552H7.28384H7.2832H7.28303H5.82715L6.55509 16.416L6.55469 16.4167H6.55549H8.01138L7.28344 15.1559ZM8.74006 15.1552L8.01172 16.4167H9.46841L8.74006 15.1552ZM13.8389 16.4167L14.5672 15.1552L15.2952 16.4162L15.2953 16.416L14.5674 15.1552H16.0233H16.0234H16.0241H17.4801L16.7518 16.4167L16.0238 15.1557L16.0237 15.1559L16.7516 16.4167H15.2957H15.2956H15.2949H13.8389ZM19.665 16.4167L20.3934 15.1552L21.1217 16.4167H19.665ZM21.1219 16.4167L21.8502 15.1552H20.3936L21.1219 16.4167ZM21.1221 16.4167L21.8504 15.1552L22.5788 16.4167H21.1221ZM22.5789 16.4167L23.3073 15.1552H21.8506L22.5789 16.4167ZM8.01138 16.4167L7.28303 17.6782L6.55469 16.4167H8.01138ZM8.01155 16.4167L7.2832 17.6782H8.73989L8.01155 16.4167ZM9.46841 16.4167L8.74006 17.6782L8.01172 16.4167H9.46841ZM9.46858 16.4167L8.74023 17.6782H10.1969L9.46858 16.4167ZM13.1104 17.6782L13.8387 16.4167L14.567 17.6782H13.1104ZM14.5672 17.6782L15.2952 16.4173L15.2953 16.4174L14.5674 17.6782H16.0233H16.0241L16.0237 17.6775L16.7516 16.4167H15.2957H15.2956H15.2949H13.8389L14.5672 17.6782ZM18.9365 17.6782L19.6649 16.4167L20.3932 17.6782H18.9365ZM20.3934 17.6782L21.1217 16.4167H19.665L20.3934 17.6782ZM20.3936 17.6782L21.1219 16.4167L21.8502 17.6782H20.3936ZM21.8504 17.6782L22.5788 16.4167H21.1221L21.8504 17.6782ZM8.73989 17.6783L8.01155 18.9398L7.2832 17.6783H8.73989ZM8.74006 17.6783L8.01172 18.9398H9.46841L8.74006 17.6783ZM10.1969 17.6783L9.46858 18.9398L8.74023 17.6783H10.1969ZM10.1971 17.6783L9.46875 18.9398H10.9254L10.1971 17.6783ZM12.3818 18.9398L13.1102 17.6783L13.8385 18.9398H12.3818ZM13.8387 18.9398L14.567 17.6783H13.1104L13.8387 18.9398ZM13.8389 18.9398L14.5672 17.6783L15.2956 18.9398H13.8389ZM15.2957 18.9398L16.0241 17.6783H14.5674L15.2957 18.9398ZM19.6653 18.9391L20.3932 17.6783H18.9373H18.9365L18.9369 17.679L18.209 18.9398H19.6649H19.665H19.6657H21.1217L20.3934 17.6783L19.6654 18.9392L19.6653 18.9391ZM21.1219 18.9398L21.8502 17.6783H20.3936L21.1219 18.9398ZM9.46841 18.9398L8.74006 20.2013L8.01172 18.9398H9.46841ZM9.46858 18.9398L8.74023 20.2013H10.1969L9.46858 18.9398ZM10.9254 18.9398L10.1971 20.2013L9.46875 18.9398H10.9254ZM10.9256 18.9398L10.1973 20.2013H11.6533H11.654H13.11L12.3817 18.9398L11.6536 20.2008L10.9256 18.9398ZM13.1102 20.2013L13.8385 18.9398H12.3818L13.1102 20.2013ZM13.1104 20.2013L13.8387 18.9398L14.567 20.2013H13.1104ZM14.5672 20.2013L15.2956 18.9398H13.8389L14.5672 20.2013ZM17.4805 20.2013L18.2088 18.9398L18.9368 20.2008L18.9369 20.2006L18.209 18.9398H19.6649H19.665H19.6657H21.1217L20.3934 20.2013L19.6654 18.9403L19.6653 18.9405L20.3932 20.2013H18.9373H18.9372H18.9365H17.4805ZM10.1969 20.2013L9.46858 21.4629L8.74023 20.2013H10.1969ZM10.1971 20.2013L9.46875 21.4629H10.9248H10.9254H10.9256H12.3815L11.6536 20.202L11.6536 20.2019L12.3817 21.4629L13.11 20.2013H11.654H11.6533H11.6532H10.1973L10.9252 21.4622L10.9251 21.4623L10.1971 20.2013ZM13.1102 20.2013L12.3818 21.4629H13.8385L13.1102 20.2013ZM14.567 20.2013L13.8387 21.4629L13.1104 20.2013H14.567ZM17.4803 20.2013L16.752 21.4629H18.2086L17.4803 20.2013ZM18.9368 20.2019L18.2088 21.4629L17.4805 20.2013H18.9365H18.9372H18.9373H20.3932L19.6653 21.4622L19.6657 21.4629H19.6649H18.209L18.9369 20.202L18.9368 20.2019ZM10.1971 22.7244L10.9251 21.4634L10.9252 21.4636L10.1973 22.7244L10.9252 23.9852L10.9248 23.9859H10.9256H12.3815L11.6536 22.7251L11.6536 22.7249L12.3817 23.9859L13.11 22.7244L12.3817 21.4629L11.6536 22.7238L11.6536 22.7237L12.3815 21.4629H10.9256H10.9254H10.9248H9.46875L10.1971 22.7244ZM13.1102 22.7244L13.8385 21.4629H12.3818L13.1102 22.7244ZM16.0234 22.7244L16.7518 21.4629L17.4801 22.7244L16.7518 23.9859L16.0234 22.7244ZM17.4803 22.7244L18.2086 21.4629H16.752L17.4803 22.7244ZM17.4803 22.7244L16.752 23.9859H18.2086L17.4803 22.7244ZM17.4805 22.7244L18.2088 21.4629L18.9372 22.7244L18.2088 23.9859L17.4805 22.7244ZM18.9373 22.7244L19.6657 21.4629H18.209L18.9373 22.7244ZM12.3815 23.9859L11.6532 25.2474L10.9248 23.9859H12.3815ZM17.4803 25.2474L18.2086 23.9859H16.752L17.4803 25.2474Z" fill="#41DEB4"/>
</g>
<defs>
<clipPath id="clip0_5003_786">
<rect width="29.1945" height="25.31" fill="white"/>
</clipPath>
</defs>
</svg>
